name processed_emg_signals
nRows=41
nColumns=7
 
endheader
time	RGLTMED	RRF	RADDLONG	RST	RTA	RGM
0.64	0.3471970411573873	0.1361233024893688	0.1155387788699952	0.3422649286196615	0.1124479750634529	0.758002439536336
0.641	0.3403698163836151	0.1364614010064276	0.1144353781835257	0.3392675962916072	0.1125430366719451	0.7621228210757599
0.642	0.3335680860395064	0.1367967155797328	0.1133958683684149	0.3362535713030888	0.1126351068294247	0.766154439217038
0.643	0.3267963028383325	0.137129032301572	0.1124238933546881	0.333225274082198	0.1127241953719365	0.7700959759199557
0.644	0.3200588534818752	0.1374581453421364	0.1115231096830268	0.3301851096628921	0.1128103321053258	0.7739461504607523
0.645	0.3133600527591067	0.13778385705552	0.1106971828389264	0.3271354640470469	0.1128935658741033	0.7777037203072242
0.646	0.3067041378553431	0.1381059780729812	0.1099497835153854	0.3240787006071454	0.1129739636265736	0.7813674819987021
0.647	0.3000952628792603	0.138424327384322	0.1092845838064048	0.3210171565413694	0.1130516094766223	0.7849362720335387
0.648	0.2935374936146198	0.1387387324081107	0.1087052533336338	0.317953139392138	0.113126603762399	0.7884089677660631
0.649	0.2870348025023414	0.1390490290516981	0.1082154553083368	0.3148889236386407	0.1131990621019344	0.7917844883139787
0.65	0.2805910638579735	0.1393550617616299	0.1078188425308118	0.3118267473733626	0.1132691144455164	0.7950617954759969
0.651	0.2742100493286128	0.1396566835650904	0.1075190533295026	0.3087688090722248	0.1133369041245741	0.7982398946582067
0.652	0.2678954235929284	0.139953756102683	0.1073197074418093	0.3057172644674841	0.1134025868967619	0.8013178358064769
0.653	0.2616507403074266	0.1402461496530043	0.1072244018390463	0.3026742235320094	0.1134663299871903	0.8042947143405443
0.654	0.2554794383022318	0.1405337431488617	0.1072367064976219	0.2996417475828085	0.1135283111259939	0.8071696720840029
0.655	0.2493848380294064	0.1408164241854063	0.1073601601185772	0.2966218465107222	0.1135887175827535	0.8099418981829787
0.656	0.2433701382670563	0.1410940890194626	0.1075982657980995	0.2936164761422909	0.1136477451984751	0.8126106300047702
0.657	0.2374384130821119	0.1413666425597866	0.107954486650988	0.2906275357388075	0.1137055974160113	0.8151751540065332
0.658	0.2315926090540944	0.1416339983472282	0.1084322413902019	0.2876568656367009	0.1137624843099295	0.8176348065633143
0.659	0.2258355427617421	0.1418960785236996	0.1090348998653586	0.2847062450328712	0.1138186216168124	0.8199889747448756
0.66	0.22016989853363	0.1421528137887502	0.1097657785639543	0.2817773899180595	0.1138742297668145	0.8222370970313571
0.661	0.2145982264631929	0.142404143342361	0.1106281360795441	0.278871951160915	0.1139295329171298	0.8243786639588159
0.662	0.2091229406878751	0.1426500148125446	0.1116251685515754	0.275991512744911	0.1139847579875953	0.8264132186862498
0.663	0.2037463179313096	0.1428903841664847	0.1127600050819868	0.2731375901597943	0.1140401336984505	0.8283403574765956
0.664	0.1984704963066592	0.1431252156038571	0.1140357031336796	0.2703116289484603	0.1140958896098834	0.8301597300853781
0.665	0.1932974743786178	0.1433544814313463	0.1154552439159737	0.2675150034096786	0.1141522551629033	0.8318710400520761
0.666	0.1882291104812896	0.1435781619174818	0.117021527762698	0.2647490154565017	0.1142094587208801	0.8334740448896014
0.667	0.1832671222884249	0.1437962451276097	0.1187373695086463	0.2620148936297418	0.1142677266111759	0.8349685561678424
0.668	0.178413086632311	0.1440087267390907	0.1206054938710049	0.2593137922655835	0.1143272821663241	0.836354439487032
0.669	0.1736684395669105	0.1442156098375635	0.1226285308428187	0.2566467908161535	0.1143883447645423	0.8376316143371578
0.67	0.1690344766702092	0.1444169046957436	0.1248090111060559	0.254014893321782	0.1144511288695967	0.8388000538398859
0.671	0.1645123535806573	0.1446126285362541	0.1271493614720983	0.2514190280336637	0.1145158430705329	0.8398597843698046
0.672	0.1601030867618942	0.1448028052803144	0.1296519003575855	0.2488600471855578	0.1145826891223669	0.840810885052632
0.673	0.1558075544902951	0.1449874652837272	0.1323188333031521	0.2463387269132802	0.1146518609893354	0.8416534871384199
0.674	0.1516264980593583	0.1451666450616811	0.1351522485427802	0.2438557673208003	0.114723543892786	0.8423877732478658
0.675	0.147560523194967	0.1453403870033192	0.1381541126310967	0.241411792692066	0.1147979133659282	0.8430139764894419
0.676	0.1436101016755435	0.1455087390771685	0.141326266136582	0.2390073518478776	0.1148751343177179	0.8435323794447579
0.677	0.1397755731503254	0.145671754528262	0.1446704194086511	0.2366429186471521	0.1149553601080698	0.8439433130194764
0.678	0.1360571471490642	0.1458294915681229	0.1481881484274597	0.2343188926320438	0.1150387316365929	0.8442471551577062
0.679	0.1324549052755876	0.1459820130586919	0.1518808907448007	0.2320355998159627	0.1151253764468493	0.8444443294182788
0.68	0.1289688035774669	0.1461293861913785	0.1557499415249301	0.2297932936132099	0.1152154078482291	0.8445353034126332
